<?xml version="1.0" encoding="utf-8"?>
<svg viewBox="0 0 500 500" xmlns="http://www.w3.org/2000/svg">
  <rect width="500" height="500" style="fill: rgb(255, 252, 245);" transform="matrix(1, 0, 0, 1, 7.105427357601002e-15, 0)"/>
  <path fill="#FFFCF5" opacity="1.000000" stroke="none" d="M 73.732 213.163 C 73.732 185.14 73.732 157.487 73.732 129.82 C 191.221 129.82 308.71 129.82 426.267 129.82 C 426.267 209.896 426.267 289.986 426.267 370.18 C 308.801 370.18 191.266 370.18 73.732 370.18 C 73.732 318.001 73.732 265.767 73.732 213.163 M 227.471 237.325 C 238.231 229.901 249.938 227.919 262.301 232.118 C 282.245 238.891 292.386 258.854 286.694 279.142 C 286.45 280.011 287.311 281.717 288.156 282.267 C 290.883 284.04 293.843 285.456 296.685 286.993 C 302.874 279.467 303.925 252.597 289.936 235.802 C 274.688 217.498 248.453 211.347 226.208 222.907 C 204.68 234.094 192.584 260.38 202.749 287.304 C 205.534 285.765 208.154 283.988 211.024 282.833 C 213.473 281.848 213.719 280.288 213.327 278.182 C 212.835 275.539 211.924 272.914 211.852 270.263 C 211.488 256.912 216.805 246.104 227.471 237.325 M 253.71 363.295 C 255.249 361.959 257.302 360.912 258.248 359.239 C 265.32 346.736 272.159 334.1 279.111 321.528 C 280.108 319.726 280.229 318.481 278.042 317.436 C 275.638 316.289 273.47 314.637 271.044 313.549 C 270.362 313.243 268.625 313.854 268.238 314.536 C 263.253 323.31 258.449 332.186 253.537 341.002 C 252.555 342.765 251.32 344.387 249.909 346.514 C 243.943 335.803 238.311 325.966 232.989 315.964 C 231.489 313.145 230.245 312.778 227.685 314.509 C 225.298 316.122 222.627 317.315 219.898 318.792 C 220.609 320.22 221.207 321.536 221.903 322.798 C 228.134 334.084 234.453 345.323 240.6 356.655 C 244.009 362.938 246.22 364.262 253.71 363.295 M 214.613 309.553 C 216.894 313.923 216.893 313.921 221.098 311.75 C 221.64 311.47 222.217 311.256 222.747 310.957 C 228.224 307.87 228.262 307.847 225.404 302.29 C 224.448 300.432 224.288 299.462 226.719 298.486 C 236.211 294.673 246.02 292.974 256.143 294.083 C 262.886 294.822 269.596 296.181 275.891 299.694 C 275.452 300.726 275.129 301.618 274.707 302.46 C 271.88 308.112 271.351 307.444 277.161 310.547 C 277.269 310.604 277.354 310.7 277.46 310.761 C 282.972 313.973 282.868 313.904 286.312 308.645 C 286.916 307.721 289.048 306.945 290.064 307.294 C 294.002 308.648 294.13 308.727 295.708 304.036 C 295.276 303.733 294.836 303.283 294.303 303.076 C 291.07 301.822 290.785 300.143 292.542 297.077 C 295.196 292.447 294.922 292.286 290.152 289.601 C 289.513 289.242 288.846 288.935 288.197 288.594 C 283.533 286.142 283.328 286.114 281.208 290.881 C 280.006 293.583 278.526 294.591 275.531 293.654 C 270.895 292.203 266.184 290.956 261.449 289.862 C 249.877 287.186 238.554 288.817 227.507 292.523 C 221.361 294.584 221.567 294.802 218.11 289.385 C 217.416 288.298 215.166 287.071 214.279 287.444 C 211.094 288.784 208.186 290.782 205.051 292.604 C 205.732 293.614 206.176 294.181 206.522 294.802 C 208.28 297.963 210.759 301.173 205.568 303.71 C 205.254 303.863 205.507 306.298 206.186 307.04 C 206.841 307.755 208.914 308.266 209.457 307.803 C 211.919 305.704 213.125 307.131 214.613 309.553 M 158.623 158.952 C 158.623 165.903 158.623 172.854 158.623 179.832 C 161.414 179.832 163.711 179.832 166.379 179.832 C 166.379 178.374 166.37 177.048 166.38 175.723 C 166.42 170.813 166.269 165.89 166.569 160.995 C 166.829 156.742 169.416 154.65 173.299 154.897 C 177.61 155.17 177.423 158.413 177.462 161.354 C 177.544 167.478 177.487 173.602 177.487 179.697 C 180.166 179.697 182.539 179.697 185.059 179.697 C 185.059 178.815 185.055 178.212 185.059 177.609 C 185.101 172.083 184.926 166.545 185.254 161.036 C 185.51 156.748 188.118 154.664 191.985 154.899 C 195.184 155.094 196.136 156.535 196.148 161.306 C 196.163 167.414 196.152 173.522 196.152 179.725 C 198.849 179.725 201.213 179.725 203.693 179.725 C 203.693 178.497 203.693 177.52 203.693 176.543 C 203.692 170.279 203.814 164.012 203.656 157.752 C 203.472 150.492 198.055 146.541 191.079 148.756 C 188.662 149.523 186.596 151.394 184.167 152.885 C 182.567 150.108 179.693 147.778 175.88 148.372 C 172.495 148.9 169.283 150.542 166.031 151.681 C 166 151.31 165.914 150.26 165.828 149.209 C 163.394 149.209 161.124 149.209 158.623 149.209 C 158.623 152.364 158.623 155.291 158.623 158.952 M 116.771 172.188 C 116.771 167.207 116.771 162.226 116.771 157.262 C 110.679 157.262 105.07 157.262 99.318 157.262 C 99.318 159.453 99.318 161.472 99.318 163.763 C 102.556 163.763 105.592 163.763 108.6 163.763 C 109.127 169.654 107.378 172.815 103.193 173.858 C 97.653 175.24 92.193 172.985 90.97 167.898 C 89.932 163.58 89.692 158.9 90.044 154.454 C 90.619 147.185 95.675 143.337 102.772 144.774 C 105.62 145.35 108.121 147.635 111.416 149.503 C 112.45 148.844 114.381 147.614 116.729 146.118 C 115.306 144.433 114.271 142.711 112.796 141.541 C 102.077 133.038 84.745 139.014 82.206 152.401 C 81.272 157.324 81.64 162.688 82.428 167.692 C 83.375 173.709 86.838 178.32 93.154 179.996 C 99.307 181.629 104.782 180.871 109.096 174.158 C 109.096 176.72 109.096 178.214 109.096 179.743 C 111.826 179.743 114.2 179.743 116.771 179.743 C 116.771 177.311 116.771 175.11 116.771 172.188 M 224.124 144.583 C 227.901 145.461 231.678 146.339 236.053 147.357 C 236.728 146.415 237.995 144.648 239.376 142.722 C 233.928 137.996 227.82 137.138 221.286 138.43 C 214.568 139.759 211.094 143.567 210.908 149.429 C 210.71 155.73 213.726 159.634 220.42 161.596 C 223.115 162.385 225.869 162.975 228.575 163.73 C 231.394 164.517 233.086 166.307 232.723 169.362 C 232.341 172.586 230.133 173.8 227.096 174.07 C 221.664 174.554 217.727 171.95 214.244 167.692 C 212.592 169.804 211.124 171.68 209.708 173.49 C 214.479 179.647 223.036 182.11 231.576 179.993 C 237.238 178.59 240.439 174.703 240.892 168.682 C 241.338 162.76 238.662 158.328 233.07 156.384 C 230.084 155.346 226.908 154.864 223.829 154.081 C 221.233 153.421 218.724 152.483 218.695 149.233 C 218.668 146.153 220.911 145.134 224.124 144.583 M 247.793 167.796 C 247.793 175.974 247.793 184.152 247.793 192.337 C 250.573 192.337 252.86 192.337 255.609 192.337 C 255.609 187.144 255.609 182.112 255.609 176.415 C 260.16 181.06 264.902 181.765 269.977 179.561 C 275.066 177.351 277.098 172.847 277.321 167.698 C 277.482 163.952 277.353 159.994 276.31 156.437 C 274.191 149.204 266.021 146.073 259.728 149.67 C 258.334 150.466 257.161 151.648 255.665 152.828 C 255.466 151.313 255.318 150.189 255.189 149.205 C 252.571 149.205 250.289 149.205 247.793 149.205 C 247.793 155.305 247.793 161.182 247.793 167.796 M 147.421 148.978 C 146.607 149.657 145.398 150.178 145.048 151.046 C 143.672 154.451 142.579 157.971 141.358 161.44 C 140.283 164.493 139.177 167.537 138.085 170.584 C 137.813 170.564 137.541 170.545 137.268 170.525 C 134.717 163.417 132.167 156.309 129.602 149.163 C 127.006 149.163 124.496 149.163 121.669 149.163 C 125.527 159.262 129.296 169.089 133.032 178.928 C 134.545 182.911 132.319 186.36 128.048 186.558 C 126.374 186.636 124.683 186.36 122.701 186.225 C 122.348 188.134 121.981 190.116 121.622 192.057 C 130.792 194.933 136.6 192.556 140.025 184.104 C 144.351 173.428 148.262 162.583 152.335 151.805 C 152.653 150.964 152.839 150.074 153.152 148.977 C 151.237 148.977 149.649 148.977 147.421 148.978 M 378.743 148.786 C 371.307 150.745 367.508 156.219 367.624 164.807 C 367.741 173.479 371.585 178.551 379.357 180.287 C 386.662 181.92 392.576 179.46 395.612 173.322 C 393.993 172.323 392.348 171.309 390.737 170.315 C 386.733 174.109 383.561 175.017 379.811 173.538 C 376.793 172.35 375.619 170.026 375.558 166.547 C 382.367 166.547 389.06 166.547 395.679 166.547 C 397.662 153.684 391.285 146.85 378.743 148.786 M 311.804 155.584 C 307.61 149.126 300.939 146.769 293.285 149.041 C 286.946 150.922 283.287 156.81 283.405 164.942 C 283.545 174.632 289.364 180.699 298.527 180.712 C 307.729 180.725 313.718 174.688 313.638 165.034 C 313.612 162.048 312.599 159.071 311.804 155.584 M 322.38 161.208 C 322.382 164.277 322.324 167.348 322.399 170.416 C 322.494 174.287 323.471 177.84 327.357 179.57 C 331.631 181.472 335.838 181.173 339.997 178.527 C 339.309 176.625 338.7 174.944 338.098 173.276 C 336.602 173.577 335.438 173.911 334.25 174.033 C 331.908 174.272 330.307 173.208 330.24 170.814 C 330.103 165.838 330.199 160.855 330.199 155.597 C 333.231 155.597 335.881 155.597 338.636 155.597 C 338.636 153.267 338.636 151.224 338.636 148.928 C 335.793 148.928 333.124 148.928 330.078 148.928 C 330.078 146.427 330.078 144.176 330.078 141.695 C 327.289 142.183 324.917 142.599 322.312 143.054 C 322.312 145.104 322.312 146.898 322.312 148.763 C 320.639 148.936 319.239 149.08 318.038 149.204 C 318.038 151.525 318.038 153.54 318.038 155.491 C 319.615 155.63 320.913 155.744 322.38 155.873 C 322.38 157.569 322.38 159.027 322.38 161.208 M 345.389 155.653 C 345.736 156.566 346.355 157.471 346.383 158.394 C 346.497 162.2 346.439 166.012 346.429 169.822 C 346.418 173.826 347.159 177.567 351.159 179.475 C 355.411 181.504 359.647 181.147 363.967 178.612 C 363.259 176.646 362.622 174.879 361.994 173.136 C 356.482 174.879 354.258 174.045 354.119 170.234 C 353.947 165.482 354.078 160.718 354.078 155.554 C 357.157 155.554 359.909 155.554 362.556 155.554 C 362.556 153.124 362.556 151.117 362.556 148.838 C 359.621 148.838 356.961 148.838 353.923 148.838 C 353.923 146.319 353.923 144.076 353.923 141.685 C 351.162 142.203 348.817 142.643 346.343 143.107 C 346.343 145.253 346.343 146.941 346.343 148.796 C 344.729 148.925 343.327 149.037 341.816 149.158 C 341.816 151.337 341.816 153.26 341.816 155.441 C 342.857 155.51 343.795 155.572 345.389 155.653 M 408.882 179.985 C 409.52 179.112 410.663 178.266 410.71 177.362 C 410.914 173.445 410.766 169.511 410.805 165.585 C 410.882 157.938 413.597 155.572 421.203 156.74 C 421.626 154.518 422.05 152.285 422.514 149.844 C 417.492 147.802 413.907 149.499 410.856 154.028 C 410.628 151.948 410.475 150.556 410.324 149.178 C 407.835 149.178 405.565 149.178 403.224 149.178 C 403.224 159.517 403.224 169.646 403.224 179.986 C 405.022 179.986 406.607 179.986 408.882 179.985 Z" style="" transform="matrix(1, 0, 0, 1, 7.105427357601002e-15, 0)"/>
  <path fill="#D30D0D" opacity="1.000000" stroke="none" d="M 225.157 237.469 C 214.721 246.104 209.404 256.912 209.768 270.263 C 209.84 272.914 210.751 275.539 211.243 278.182 C 211.635 280.288 211.389 281.848 208.94 282.833 C 206.07 283.988 203.45 285.765 200.665 287.304 C 190.5 260.38 202.596 234.094 224.124 222.907 C 246.369 211.347 272.604 217.498 287.852 235.802 C 301.841 252.597 300.79 279.467 294.601 286.993 C 291.759 285.456 288.799 284.04 286.072 282.267 C 285.227 281.717 284.366 280.011 284.61 279.142 C 290.302 258.854 280.161 238.891 260.217 232.118 C 247.854 227.919 236.147 229.901 225.157 237.469 Z" style="" transform="matrix(1, 0, 0, 1, 7.105427357601002e-15, 0)"/>
  <path fill="#D30D0D" opacity="1.000000" stroke="none" d="M 251.353 363.337 C 244.136 364.262 241.925 362.938 238.516 356.655 C 232.369 345.323 226.05 334.084 219.819 322.798 C 219.123 321.536 218.525 320.22 217.814 318.792 C 220.543 317.315 223.214 316.122 225.601 314.509 C 228.161 312.778 229.405 313.145 230.905 315.964 C 236.227 325.966 241.859 335.803 247.825 346.514 C 249.236 344.387 250.471 342.765 251.453 341.002 C 256.365 332.186 261.169 323.31 266.154 314.536 C 266.541 313.854 268.278 313.243 268.96 313.549 C 271.386 314.637 273.554 316.289 275.958 317.436 C 278.145 318.481 278.024 319.726 277.027 321.528 C 270.075 334.1 263.236 346.736 256.164 359.239 C 255.218 360.912 253.165 361.959 251.353 363.337 Z" style="" transform="matrix(1, 0, 0, 1, 7.105427357601002e-15, 0)"/>
  <path fill="#D41313" opacity="1.000000" stroke="none" d="M 212.401 309.307 C 211.041 307.131 209.835 305.704 207.373 307.803 C 206.83 308.266 204.757 307.755 204.102 307.04 C 203.423 306.298 203.17 303.863 203.484 303.71 C 208.675 301.173 206.196 297.963 204.438 294.802 C 204.092 294.181 203.648 293.614 202.967 292.604 C 206.102 290.782 209.01 288.784 212.195 287.444 C 213.082 287.071 215.332 288.298 216.026 289.385 C 219.483 294.802 219.277 294.584 225.423 292.523 C 236.47 288.817 247.793 287.186 259.365 289.862 C 264.1 290.956 268.811 292.203 273.447 293.654 C 276.442 294.591 277.922 293.583 279.124 290.881 C 281.244 286.114 281.449 286.142 286.113 288.594 C 286.762 288.935 287.429 289.242 288.068 289.601 C 292.838 292.286 293.112 292.447 290.458 297.077 C 288.701 300.143 288.986 301.822 292.219 303.076 C 292.752 303.283 293.192 303.733 293.624 304.036 C 292.046 308.727 291.918 308.648 287.98 307.294 C 286.964 306.945 284.832 307.721 284.228 308.645 C 280.784 313.904 280.888 313.973 275.376 310.761 C 275.27 310.7 275.185 310.604 275.077 310.547 C 269.267 307.444 269.796 308.112 272.623 302.46 C 273.045 301.618 273.368 300.726 273.807 299.694 C 267.512 296.181 260.802 294.822 254.059 294.083 C 243.936 292.974 234.127 294.673 224.635 298.486 C 222.204 299.462 222.364 300.432 223.32 302.29 C 226.178 307.847 226.14 307.87 220.663 310.957 C 220.133 311.256 219.556 311.47 219.014 311.75 C 214.809 313.921 214.81 313.923 212.401 309.307 Z" style="" transform="matrix(1, 0, 0, 1, 7.105427357601002e-15, 0)"/>
  <path fill="#D20707" opacity="1.000000" stroke="none" d="M 156.539 158.584 C 156.539 155.291 156.539 152.364 156.539 149.209 C 159.04 149.209 161.31 149.209 163.744 149.209 C 163.83 150.26 163.916 151.31 163.947 151.681 C 167.199 150.542 170.411 148.9 173.796 148.372 C 177.609 147.778 180.483 150.108 182.083 152.885 C 184.512 151.394 186.578 149.523 188.995 148.756 C 195.971 146.541 201.388 150.492 201.572 157.752 C 201.73 164.012 201.608 170.279 201.609 176.543 C 201.609 177.52 201.609 178.497 201.609 179.725 C 199.129 179.725 196.765 179.725 194.068 179.725 C 194.068 173.522 194.079 167.414 194.064 161.306 C 194.052 156.535 193.1 155.094 189.901 154.899 C 186.034 154.664 183.426 156.748 183.17 161.036 C 182.842 166.545 183.017 172.083 182.975 177.609 C 182.971 178.212 182.975 178.815 182.975 179.697 C 180.455 179.697 178.082 179.697 175.403 179.697 C 175.403 173.602 175.46 167.478 175.378 161.354 C 175.339 158.413 175.526 155.17 171.215 154.897 C 167.332 154.65 164.745 156.742 164.485 160.995 C 164.185 165.89 164.336 170.813 164.296 175.723 C 164.286 177.048 164.295 178.374 164.295 179.832 C 161.627 179.832 159.33 179.832 156.539 179.832 C 156.539 172.854 156.539 165.903 156.539 158.584 Z" style="" transform="matrix(1, 0, 0, 1, 7.105427357601002e-15, 0)"/>
  <path fill="#D20707" opacity="1.000000" stroke="none" d="M 114.687 172.55 C 114.687 175.11 114.687 177.311 114.687 179.743 C 112.116 179.743 109.742 179.743 107.012 179.743 C 107.012 178.214 107.012 176.72 107.012 174.158 C 102.698 180.871 97.223 181.629 91.07 179.996 C 84.754 178.32 81.291 173.709 80.344 167.692 C 79.556 162.688 79.188 157.324 80.122 152.401 C 82.661 139.014 99.993 133.038 110.712 141.541 C 112.187 142.711 113.222 144.433 114.645 146.118 C 112.297 147.614 110.366 148.844 109.332 149.503 C 106.037 147.635 103.536 145.35 100.688 144.774 C 93.591 143.337 88.535 147.185 87.96 154.454 C 87.608 158.9 87.848 163.58 88.886 167.898 C 90.109 172.985 95.569 175.24 101.109 173.858 C 105.294 172.815 107.043 169.654 106.516 163.763 C 103.508 163.763 100.472 163.763 97.234 163.763 C 97.234 161.472 97.234 159.453 97.234 157.262 C 102.986 157.262 108.595 157.262 114.687 157.262 C 114.687 162.226 114.687 167.207 114.687 172.55 Z" style="" transform="matrix(1, 0, 0, 1, 7.105427357601002e-15, 0)"/>
  <path fill="#D20606" opacity="1.000000" stroke="none" d="M 221.727 144.598 C 218.827 145.134 216.584 146.153 216.611 149.233 C 216.64 152.483 219.149 153.421 221.745 154.081 C 224.824 154.864 228 155.346 230.986 156.384 C 236.578 158.328 239.254 162.76 238.808 168.682 C 238.355 174.703 235.154 178.59 229.492 179.993 C 220.952 182.11 212.395 179.647 207.624 173.49 C 209.04 171.68 210.508 169.804 212.16 167.692 C 215.643 171.95 219.58 174.554 225.012 174.07 C 228.049 173.8 230.257 172.586 230.639 169.362 C 231.002 166.307 229.31 164.517 226.491 163.73 C 223.785 162.975 221.031 162.385 218.336 161.596 C 211.642 159.634 208.626 155.73 208.824 149.429 C 209.01 143.567 212.484 139.759 219.202 138.43 C 225.736 137.138 231.844 137.996 237.292 142.722 C 235.911 144.648 234.644 146.415 233.969 147.357 C 229.594 146.339 225.817 145.461 221.727 144.598 Z" style="" transform="matrix(1, 0, 0, 1, 7.105427357601002e-15, 0)"/>
  <path fill="#D20505" opacity="1.000000" stroke="none" d="M 245.709 167.428 C 245.709 161.182 245.709 155.305 245.709 149.205 C 248.205 149.205 250.487 149.205 253.105 149.205 C 253.234 150.189 253.382 151.313 253.581 152.828 C 255.077 151.648 256.25 150.466 257.644 149.67 C 263.937 146.073 272.107 149.204 274.226 156.437 C 275.269 159.994 275.398 163.952 275.237 167.698 C 275.014 172.847 272.982 177.351 267.893 179.561 C 262.818 181.765 258.076 181.06 253.525 176.415 C 253.525 182.112 253.525 187.144 253.525 192.337 C 250.776 192.337 248.489 192.337 245.709 192.337 C 245.709 184.152 245.709 175.974 245.709 167.428 M 253.854 169.051 C 255.797 173.227 257.827 174.518 261.715 174.05 C 265.043 173.648 267.014 171.458 267.477 167.095 C 267.705 164.944 267.605 162.69 267.228 160.558 C 266.545 156.702 264.37 154.954 260.752 154.884 C 257.175 154.813 254.562 156.523 253.892 160.148 C 253.394 162.839 253.743 165.688 253.854 169.051 Z" style="" transform="matrix(1, 0, 0, 1, 7.105427357601002e-15, 0)"/>
  <path fill="#D20808" opacity="1.000000" stroke="none" d="M 145.656 148.977 C 147.565 148.977 149.153 148.977 151.068 148.977 C 150.755 150.074 150.569 150.964 150.251 151.805 C 146.178 162.583 142.267 173.428 137.941 184.104 C 134.516 192.556 128.708 194.933 119.538 192.057 C 119.897 190.116 120.264 188.134 120.617 186.225 C 122.599 186.36 124.29 186.636 125.964 186.558 C 130.235 186.36 132.461 182.911 130.948 178.928 C 127.212 169.089 123.443 159.262 119.585 149.163 C 122.412 149.163 124.922 149.163 127.518 149.163 C 130.083 156.309 132.633 163.417 135.184 170.525 C 135.457 170.545 135.729 170.564 136.001 170.584 C 137.093 167.537 138.199 164.493 139.274 161.44 C 140.495 157.971 141.588 154.451 142.964 151.046 C 143.314 150.178 144.523 149.657 145.656 148.977 Z" style="" transform="matrix(1, 0, 0, 1, 7.105427357601002e-15, 0)"/>
  <path fill="#D20606" opacity="1.000000" stroke="none" d="M 376.955 148.691 C 389.201 146.85 395.578 153.684 393.595 166.547 C 386.976 166.547 380.283 166.547 373.474 166.547 C 373.535 170.026 374.709 172.35 377.727 173.538 C 381.477 175.017 384.649 174.109 388.653 170.315 C 390.264 171.309 391.909 172.323 393.528 173.322 C 390.492 179.46 384.578 181.92 377.273 180.287 C 369.501 178.551 365.657 173.479 365.54 164.807 C 365.424 156.219 369.223 150.745 376.955 148.691 M 386.553 159.327 C 385.149 155.055 383.269 153.692 379.433 154.169 C 375.973 154.599 374.059 157.093 373.902 161.53 C 375.002 161.53 376.1 161.53 377.197 161.53 C 379.648 161.53 382.108 161.648 384.544 161.458 C 385.273 161.4 385.936 160.483 386.553 159.327 Z" style="" transform="matrix(1, 0, 0, 1, 7.105427357601002e-15, 0)"/>
  <path fill="#D20606" opacity="1.000000" stroke="none" d="M 309.837 155.837 C 310.515 159.071 311.528 162.048 311.554 165.034 C 311.634 174.688 305.645 180.725 296.443 180.712 C 287.28 180.699 281.461 174.632 281.321 164.942 C 281.203 156.81 284.862 150.922 291.201 149.041 C 298.855 146.769 305.526 149.126 309.837 155.837 M 299.786 155.529 C 294.903 154.107 291.139 155.016 290.306 158.781 C 289.497 162.437 289.616 166.525 290.389 170.201 C 290.72 171.778 293.69 173.727 295.542 173.816 C 297.742 173.921 300.748 172.809 302.134 171.158 C 305.412 167.254 304.134 159.28 299.786 155.529 Z" style="" transform="matrix(1, 0, 0, 1, 7.105427357601002e-15, 0)"/>
  <path fill="#D30909" opacity="1.000000" stroke="none" d="M 320.296 160.846 C 320.296 159.027 320.296 157.569 320.296 155.873 C 318.829 155.744 317.531 155.63 315.954 155.491 C 315.954 153.54 315.954 151.525 315.954 149.204 C 317.155 149.08 318.555 148.936 320.228 148.763 C 320.228 146.898 320.228 145.104 320.228 143.054 C 322.833 142.599 325.205 142.183 327.994 141.695 C 327.994 144.176 327.994 146.427 327.994 148.928 C 331.04 148.928 333.709 148.928 336.552 148.928 C 336.552 151.224 336.552 153.267 336.552 155.597 C 333.797 155.597 331.147 155.597 328.115 155.597 C 328.115 160.855 328.019 165.838 328.156 170.814 C 328.223 173.208 329.824 174.272 332.166 174.033 C 333.354 173.911 334.518 173.577 336.014 173.276 C 336.616 174.944 337.225 176.625 337.913 178.527 C 333.754 181.173 329.547 181.472 325.273 179.57 C 321.387 177.84 320.41 174.287 320.315 170.416 C 320.24 167.348 320.298 164.277 320.296 160.846 Z" style="" transform="matrix(1, 0, 0, 1, 7.105427357601002e-15, 0)"/>
  <path fill="#D20505" opacity="1.000000" stroke="none" d="M 342.977 155.643 C 341.711 155.572 340.773 155.51 339.732 155.441 C 339.732 153.26 339.732 151.337 339.732 149.158 C 341.243 149.037 342.645 148.925 344.259 148.796 C 344.259 146.941 344.259 145.253 344.259 143.107 C 346.733 142.643 349.078 142.203 351.839 141.685 C 351.839 144.076 351.839 146.319 351.839 148.838 C 354.877 148.838 357.537 148.838 360.472 148.838 C 360.472 151.117 360.472 153.124 360.472 155.554 C 357.825 155.554 355.073 155.554 351.994 155.554 C 351.994 160.718 351.863 165.482 352.035 170.234 C 352.174 174.045 354.398 174.879 359.91 173.136 C 360.538 174.879 361.175 176.646 361.883 178.612 C 357.563 181.147 353.327 181.504 349.075 179.475 C 345.075 177.567 344.334 173.826 344.345 169.822 C 344.355 166.012 344.413 162.2 344.299 158.394 C 344.271 157.471 343.652 156.566 342.977 155.643 Z" style="" transform="matrix(1, 0, 0, 1, 7.105427357601002e-15, 0)"/>
  <path fill="#D30E0E" opacity="1.000000" stroke="none" d="M 406.453 179.985 C 404.523 179.986 402.938 179.986 401.14 179.986 C 401.14 169.646 401.14 159.517 401.14 149.178 C 403.481 149.178 405.751 149.178 408.24 149.178 C 408.391 150.556 408.544 151.948 408.772 154.028 C 411.823 149.499 415.408 147.802 420.43 149.844 C 419.966 152.285 419.542 154.518 419.119 156.74 C 411.513 155.572 408.798 157.938 408.721 165.585 C 408.682 169.511 408.83 173.445 408.626 177.362 C 408.579 178.266 407.436 179.112 406.453 179.985 Z" style="" transform="matrix(1, 0, 0, 1, 7.105427357601002e-15, 0)"/>
  <path fill="#FDF5EE" opacity="1.000000" stroke="none" d="M 253.784 168.759 C 253.743 165.688 253.394 162.839 253.892 160.148 C 254.562 156.523 257.175 154.813 260.752 154.884 C 264.37 154.954 266.545 156.702 267.228 160.558 C 267.605 162.69 267.705 164.944 267.477 167.095 C 267.014 171.458 265.043 173.648 261.715 174.05 C 257.827 174.518 255.797 173.227 253.784 168.759 Z" style="" transform="matrix(1, 0, 0, 1, 7.105427357601002e-15, 0)"/>
  <path fill="#FDF5EE" opacity="1.000000" stroke="none" d="M 386.592 159.644 C 385.936 160.483 385.273 161.4 384.544 161.458 C 382.108 161.648 379.648 161.53 377.197 161.53 C 376.1 161.53 375.002 161.53 373.902 161.53 C 374.059 157.093 375.973 154.599 379.433 154.169 C 383.269 153.692 385.149 155.055 386.592 159.644 Z" style="" transform="matrix(1, 0, 0, 1, 7.105427357601002e-15, 0)"/>
  <path fill="#FEF6EF" opacity="1.000000" stroke="none" d="M 300.053 155.643 C 304.134 159.28 305.412 167.254 302.134 171.158 C 300.748 172.809 297.742 173.921 295.542 173.816 C 293.69 173.727 290.72 171.778 290.389 170.201 C 289.616 166.525 289.497 162.437 290.306 158.781 C 291.139 155.016 294.903 154.107 300.053 155.643 Z" style="" transform="matrix(1, 0, 0, 1, 7.105427357601002e-15, 0)"/>
</svg>