<?xml version="1.0" encoding="utf-8"?>
<svg viewBox="0 0 500 500" xmlns="http://www.w3.org/2000/svg">
  <path fill="#D30D0D" opacity="1.000000" stroke="none" d="M 205.128 144.736 C 184.61 161.933 174.156 183.459 174.872 210.052 C 175.014 215.331 176.807 220.56 177.773 225.825 C 178.543 230.018 178.06 233.125 173.246 235.088 C 167.602 237.387 162.451 240.926 156.975 243.991 C 136.99 190.368 160.771 138.012 203.098 115.731 C 246.833 92.708 298.411 104.957 328.389 141.414 C 355.893 174.866 353.826 228.384 341.657 243.372 C 336.071 240.311 330.251 237.491 324.889 233.959 C 323.227 232.865 321.535 229.466 322.015 227.736 C 333.207 187.329 313.269 147.566 274.06 134.076 C 249.752 125.713 226.736 129.661 205.128 144.736 Z" style="" transform="matrix(1, 0, 0, 1, 7.105427357601002e-15, 0)" />
  <path fill="#D30D0D" opacity="1.000000" stroke="none" d="M 256.63 395.43 C 242.442 397.272 238.094 394.634 231.393 382.119 C 219.308 359.548 206.884 337.164 194.634 314.686 C 193.265 312.172 192.091 309.55 190.692 306.708 C 196.056 303.765 201.308 301.39 206.001 298.176 C 211.034 294.729 213.48 295.46 216.429 301.076 C 226.893 320.996 237.965 340.589 249.695 361.923 C 252.469 357.685 254.897 354.456 256.828 350.944 C 266.484 333.384 275.929 315.706 285.73 298.23 C 286.491 296.874 289.906 295.654 291.247 296.263 C 296.016 298.432 300.278 301.722 305.005 304.008 C 309.304 306.087 309.067 308.568 307.107 312.157 C 293.438 337.197 279.992 362.363 266.089 387.266 C 264.229 390.599 260.194 392.683 256.63 395.43 Z" style="" transform="matrix(1, 0, 0, 1, 7.105427357601002e-15, 0)" />
  <path fill="#D41313" opacity="1.000000" stroke="none" d="M 180.05 287.817 C 177.376 283.483 175.005 280.64 170.164 284.82 C 169.096 285.744 165.021 284.726 163.733 283.3 C 162.398 281.823 161.901 276.973 162.517 276.668 C 172.724 271.616 167.85 265.221 164.393 258.926 C 163.712 257.688 162.84 256.561 161.502 254.549 C 167.666 250.92 173.383 246.94 179.644 244.271 C 181.388 243.527 185.811 245.972 187.176 248.137 C 193.973 258.926 193.568 258.492 205.65 254.388 C 227.37 247.005 249.632 243.758 272.384 249.086 C 281.693 251.267 290.954 253.749 300.069 256.64 C 305.957 258.505 308.867 256.497 311.229 251.117 C 315.399 241.621 315.8 241.677 324.971 246.56 C 326.247 247.241 327.558 247.852 328.813 248.568 C 338.192 253.916 338.731 254.235 333.512 263.457 C 330.058 269.563 330.619 272.908 336.974 275.405 C 338.023 275.819 338.888 276.714 339.738 277.317 C 336.635 286.66 336.385 286.503 328.641 283.808 C 326.642 283.112 322.454 284.656 321.264 286.498 C 314.494 296.973 314.699 297.109 303.86 290.712 C 303.653 290.591 303.484 290.399 303.273 290.285 C 291.85 284.105 292.891 285.437 298.45 274.179 C 299.277 272.501 299.914 270.725 300.777 268.67 C 288.4 261.673 275.206 258.966 261.951 257.495 C 242.048 255.285 222.763 258.669 204.101 266.263 C 199.323 268.208 199.637 270.141 201.516 273.841 C 207.135 284.908 207.062 284.955 196.293 291.104 C 195.25 291.698 194.116 292.124 193.05 292.681 C 184.783 297.004 184.785 297.009 180.05 287.817 Z" style="" transform="matrix(1, 0, 0, 1, 7.105427357601002e-15, 0)" />
</svg>